solid ASCII
  facet normal 1.000000e+00 0.000000e+00 0.000000e+00
    outer loop
      vertex   -3.749999e+01 -1.249999e+01 0.000000e+00
      vertex   -3.749999e+01 1.249999e+01 0.000000e+00
      vertex   -3.749999e+01 -1.249999e+01 1.500000e+01
    endloop
  endfacet
  facet normal 1.000000e+00 -0.000000e+00 0.000000e+00
    outer loop
      vertex   -3.749999e+01 -1.249999e+01 1.500000e+01
      vertex   -3.749999e+01 1.249999e+01 0.000000e+00
      vertex   -3.749999e+01 1.249999e+01 1.500000e+01
    endloop
  endfacet
  facet normal -2.368476e-17 -1.000000e+00 0.000000e+00
    outer loop
      vertex   -3.749999e+01 1.249999e+01 0.000000e+00
      vertex   3.749999e+01 1.249999e+01 0.000000e+00
      vertex   -3.749999e+01 1.249999e+01 1.500000e+01
    endloop
  endfacet
  facet normal -2.368476e-17 -1.000000e+00 0.000000e+00
    outer loop
      vertex   -3.749999e+01 1.249999e+01 1.500000e+01
      vertex   3.749999e+01 1.249999e+01 0.000000e+00
      vertex   3.749999e+01 1.249999e+01 1.500000e+01
    endloop
  endfacet
  facet normal -1.000000e+00 0.000000e+00 0.000000e+00
    outer loop
      vertex   3.749999e+01 1.249999e+01 0.000000e+00
      vertex   3.749999e+01 -1.249999e+01 0.000000e+00
      vertex   3.749999e+01 1.249999e+01 1.500000e+01
    endloop
  endfacet
  facet normal -1.000000e+00 -0.000000e+00 0.000000e+00
    outer loop
      vertex   3.749999e+01 1.249999e+01 1.500000e+01
      vertex   3.749999e+01 -1.249999e+01 0.000000e+00
      vertex   3.749999e+01 -1.249999e+01 1.500000e+01
    endloop
  endfacet
  facet normal 2.368476e-17 1.000000e+00 -0.000000e+00
    outer loop
      vertex   3.749999e+01 -1.249999e+01 0.000000e+00
      vertex   -3.749999e+01 -1.249999e+01 0.000000e+00
      vertex   3.749999e+01 -1.249999e+01 1.500000e+01
    endloop
  endfacet
  facet normal 2.368476e-17 1.000000e+00 0.000000e+00
    outer loop
      vertex   3.749999e+01 -1.249999e+01 1.500000e+01
      vertex   -3.749999e+01 -1.249999e+01 0.000000e+00
      vertex   -3.749999e+01 -1.249999e+01 1.500000e+01
    endloop
  endfacet
  facet normal -1.000000e+00 0.000000e+00 0.000000e+00
    outer loop
      vertex   -3.750000e+01 1.250000e+01 0.000000e+00
      vertex   -3.750000e+01 -1.250000e+01 0.000000e+00
      vertex   -3.750000e+01 1.250000e+01 1.500000e+01
    endloop
  endfacet
  facet normal -1.000000e+00 -0.000000e+00 0.000000e+00
    outer loop
      vertex   -3.750000e+01 1.250000e+01 1.500000e+01
      vertex   -3.750000e+01 -1.250000e+01 0.000000e+00
      vertex   -3.750000e+01 -1.250000e+01 1.500000e+01
    endloop
  endfacet
  facet normal 0.000000e+00 1.000000e+00 -0.000000e+00
    outer loop
      vertex   3.750000e+01 1.250000e+01 0.000000e+00
      vertex   -3.750000e+01 1.250000e+01 0.000000e+00
      vertex   3.750000e+01 1.250000e+01 1.500000e+01
    endloop
  endfacet
  facet normal 0.000000e+00 1.000000e+00 0.000000e+00
    outer loop
      vertex   3.750000e+01 1.250000e+01 1.500000e+01
      vertex   -3.750000e+01 1.250000e+01 0.000000e+00
      vertex   -3.750000e+01 1.250000e+01 1.500000e+01
    endloop
  endfacet
  facet normal 1.000000e+00 0.000000e+00 0.000000e+00
    outer loop
      vertex   3.750000e+01 -1.250000e+01 0.000000e+00
      vertex   3.750000e+01 1.250000e+01 0.000000e+00
      vertex   3.750000e+01 -1.250000e+01 1.500000e+01
    endloop
  endfacet
  facet normal 1.000000e+00 -0.000000e+00 0.000000e+00
    outer loop
      vertex   3.750000e+01 -1.250000e+01 1.500000e+01
      vertex   3.750000e+01 1.250000e+01 0.000000e+00
      vertex   3.750000e+01 1.250000e+01 1.500000e+01
    endloop
  endfacet
  facet normal 0.000000e+00 -1.000000e+00 0.000000e+00
    outer loop
      vertex   -3.750000e+01 -1.250000e+01 0.000000e+00
      vertex   3.750000e+01 -1.250000e+01 0.000000e+00
      vertex   -3.750000e+01 -1.250000e+01 1.500000e+01
    endloop
  endfacet
  facet normal 0.000000e+00 -1.000000e+00 0.000000e+00
    outer loop
      vertex   -3.750000e+01 -1.250000e+01 1.500000e+01
      vertex   3.750000e+01 -1.250000e+01 0.000000e+00
      vertex   3.750000e+01 -1.250000e+01 1.500000e+01
    endloop
  endfacet
  facet normal 0.000000e+00 0.000000e+00 1.000000e+00
    outer loop
      vertex   -3.749999e+01 1.249999e+01 1.500000e+01
      vertex   -3.750000e+01 -1.250000e+01 1.500000e+01
      vertex   -3.749999e+01 -1.249999e+01 1.500000e+01
    endloop
  endfacet
  facet normal 0.000000e+00 0.000000e+00 1.000000e+00
    outer loop
      vertex   -3.749999e+01 -1.249999e+01 1.500000e+01
      vertex   -3.750000e+01 -1.250000e+01 1.500000e+01
      vertex   3.750000e+01 -1.250000e+01 1.500000e+01
    endloop
  endfacet
  facet normal 0.000000e+00 0.000000e+00 1.000000e+00
    outer loop
      vertex   -3.749999e+01 -1.249999e+01 1.500000e+01
      vertex   3.750000e+01 -1.250000e+01 1.500000e+01
      vertex   3.749999e+01 -1.249999e+01 1.500000e+01
    endloop
  endfacet
  facet normal -0.000000e+00 0.000000e+00 1.000000e+00
    outer loop
      vertex   3.749999e+01 -1.249999e+01 1.500000e+01
      vertex   3.750000e+01 -1.250000e+01 1.500000e+01
      vertex   3.749999e+01 1.249999e+01 1.500000e+01
    endloop
  endfacet
  facet normal -0.000000e+00 0.000000e+00 1.000000e+00
    outer loop
      vertex   3.749999e+01 1.249999e+01 1.500000e+01
      vertex   3.750000e+01 -1.250000e+01 1.500000e+01
      vertex   3.750000e+01 1.250000e+01 1.500000e+01
    endloop
  endfacet
  facet normal 0.000000e+00 -0.000000e+00 1.000000e+00
    outer loop
      vertex   3.749999e+01 1.249999e+01 1.500000e+01
      vertex   3.750000e+01 1.250000e+01 1.500000e+01
      vertex   -3.750000e+01 1.250000e+01 1.500000e+01
    endloop
  endfacet
  facet normal 0.000000e+00 0.000000e+00 1.000000e+00
    outer loop
      vertex   -3.750000e+01 -1.250000e+01 1.500000e+01
      vertex   -3.749999e+01 1.249999e+01 1.500000e+01
      vertex   -3.750000e+01 1.250000e+01 1.500000e+01
    endloop
  endfacet
  facet normal 0.000000e+00 0.000000e+00 1.000000e+00
    outer loop
      vertex   -3.750000e+01 1.250000e+01 1.500000e+01
      vertex   -3.749999e+01 1.249999e+01 1.500000e+01
      vertex   3.749999e+01 1.249999e+01 1.500000e+01
    endloop
  endfacet
  facet normal -0.000000e+00 0.000000e+00 -1.000000e+00
    outer loop
      vertex   -3.749999e+01 -1.249999e+01 0.000000e+00
      vertex   -3.750000e+01 -1.250000e+01 0.000000e+00
      vertex   -3.749999e+01 1.249999e+01 0.000000e+00
    endloop
  endfacet
  facet normal -0.000000e+00 0.000000e+00 -1.000000e+00
    outer loop
      vertex   -3.749999e+01 1.249999e+01 0.000000e+00
      vertex   -3.750000e+01 -1.250000e+01 0.000000e+00
      vertex   -3.750000e+01 1.250000e+01 0.000000e+00
    endloop
  endfacet
  facet normal 0.000000e+00 0.000000e+00 -1.000000e+00
    outer loop
      vertex   -3.749999e+01 1.249999e+01 0.000000e+00
      vertex   -3.750000e+01 1.250000e+01 0.000000e+00
      vertex   3.750000e+01 1.250000e+01 0.000000e+00
    endloop
  endfacet
  facet normal 0.000000e+00 -0.000000e+00 -1.000000e+00
    outer loop
      vertex   -3.749999e+01 -1.249999e+01 0.000000e+00
      vertex   3.749999e+01 -1.249999e+01 0.000000e+00
      vertex   -3.750000e+01 -1.250000e+01 0.000000e+00
    endloop
  endfacet
  facet normal 0.000000e+00 0.000000e+00 -1.000000e+00
    outer loop
      vertex   -3.750000e+01 -1.250000e+01 0.000000e+00
      vertex   3.749999e+01 -1.249999e+01 0.000000e+00
      vertex   3.750000e+01 -1.250000e+01 0.000000e+00
    endloop
  endfacet
  facet normal 0.000000e+00 0.000000e+00 -1.000000e+00
    outer loop
      vertex   3.750000e+01 -1.250000e+01 0.000000e+00
      vertex   3.749999e+01 -1.249999e+01 0.000000e+00
      vertex   3.749999e+01 1.249999e+01 0.000000e+00
    endloop
  endfacet
  facet normal 0.000000e+00 0.000000e+00 -1.000000e+00
    outer loop
      vertex   3.750000e+01 -1.250000e+01 0.000000e+00
      vertex   3.749999e+01 1.249999e+01 0.000000e+00
      vertex   3.750000e+01 1.250000e+01 0.000000e+00
    endloop
  endfacet
  facet normal 0.000000e+00 0.000000e+00 -1.000000e+00
    outer loop
      vertex   3.750000e+01 1.250000e+01 0.000000e+00
      vertex   3.749999e+01 1.249999e+01 0.000000e+00
      vertex   -3.749999e+01 1.249999e+01 0.000000e+00
    endloop
  endfacet
endsolid
